<svg width="20" height="20" viewBox="0 0 20 20" fill="none" xmlns="http://www.w3.org/2000/svg">
<path d="M2.60156 1.29297C2.35938 1.35156 2.00391 1.55859 1.83203 1.74609C1.74609 1.83984 1.61719 2.03515 1.55078 2.17969L1.42578 2.4414L1.41406 3.36328C1.40234 4.22656 1.40625 4.29687 1.48047 4.4414C1.60547 4.69531 1.71484 4.74219 2.20703 4.76953C2.5 4.78515 2.67578 4.8125 2.76172 4.85547C3.07812 5.02344 3.09375 5.52344 2.78516 5.72265C2.70312 5.78125 2.57031 5.80078 2.23828 5.8164C1.75781 5.84375 1.66406 5.88281 1.49609 6.13281C1.41406 6.25 1.40625 6.30469 1.40625 6.80078V7.34375H2.27734C3.14062 7.34375 3.15234 7.34375 3.23438 7.43359C3.33984 7.54687 3.34375 7.73437 3.24609 7.85547C3.17188 7.94922 3.16406 7.94922 2.28906 7.96094L1.40625 7.97265V8.42187V8.86719H2.26172C3.06641 8.86719 3.12109 8.87109 3.21875 8.94922C3.36328 9.0625 3.36328 9.29687 3.21875 9.41016C3.12109 9.48828 3.06641 9.49219 2.26172 9.49219H1.40625V9.9375V10.3867L2.28906 10.3984C3.16406 10.4102 3.17188 10.4102 3.24609 10.5039C3.34766 10.6289 3.34375 10.8242 3.23047 10.9297C3.14453 11.0117 3.10938 11.0156 2.27344 11.0156H1.40625V11.4844V11.9531H2.28516C3.11328 11.9531 3.16797 11.957 3.24219 12.0312C3.32422 12.1133 3.34375 12.3008 3.28125 12.4219C3.21094 12.5508 3.02344 12.5781 2.20312 12.5781H1.40625V13.0859C1.40625 13.6758 1.46094 13.8359 1.70703 13.9883C1.82422 14.0625 1.92578 14.082 2.28125 14.1016C2.51953 14.1133 2.75391 14.1445 2.80078 14.1719C3.10938 14.3437 3.07422 15.0039 2.75391 15.1484C2.69922 15.1758 2.49219 15.1953 2.29297 15.1953C1.87109 15.1953 1.66406 15.2695 1.51953 15.4727C1.42578 15.6055 1.42578 15.6133 1.42578 16.5859V17.5625L1.57031 17.8594C1.74609 18.2148 1.97266 18.4336 2.33594 18.6055L2.59766 18.7305H10.0039H17.4062L17.7031 18.5859C18.0586 18.4102 18.2773 18.1836 18.4492 17.8203L18.5742 17.5586V16.582C18.5742 15.6133 18.5742 15.6055 18.4805 15.4727C18.3359 15.2695 18.1289 15.1953 17.7031 15.1953C17.2656 15.1953 17.1484 15.1406 17.0273 14.8906C16.9375 14.7109 16.9492 14.5352 17.0547 14.3281C17.1406 14.1641 17.25 14.125 17.7188 14.1016C18.0742 14.082 18.1758 14.0625 18.293 13.9883C18.5391 13.8359 18.5938 13.6758 18.5938 13.0859V12.5781H17.7969C16.9766 12.5781 16.7891 12.5508 16.7188 12.4219C16.6562 12.3008 16.6758 12.1133 16.7578 12.0312C16.832 11.957 16.8867 11.9531 17.7148 11.9531H18.5938V11.4844V11.0156H17.7227C16.8594 11.0156 16.8477 11.0156 16.7656 10.9258C16.6602 10.8125 16.6562 10.625 16.7539 10.5039C16.8281 10.4102 16.8359 10.4102 17.7109 10.3984L18.5938 10.3867V9.9375V9.49219H17.7383C16.9336 9.49219 16.8789 9.48828 16.7812 9.41016C16.6367 9.29687 16.6367 9.0625 16.7812 8.94922C16.8789 8.87109 16.9336 8.86719 17.7383 8.86719H18.5938V8.42187V7.97265L17.7109 7.96094C16.8359 7.94922 16.8281 7.94922 16.7539 7.85547C16.6523 7.73047 16.6562 7.53515 16.7695 7.42969C16.8555 7.34765 16.8906 7.34375 17.7266 7.34375H18.5938V6.80078C18.5938 6.30469 18.5859 6.25 18.5078 6.13281C18.3359 5.88281 18.2422 5.84375 17.7617 5.8164C17.4297 5.80078 17.2969 5.78125 17.2148 5.72265C16.9062 5.52344 16.9219 5.02344 17.2383 4.85547C17.3242 4.8125 17.5 4.78515 17.793 4.76953C18.2852 4.74219 18.3945 4.69531 18.5195 4.4414C18.5938 4.29687 18.5977 4.22656 18.5859 3.36328L18.5742 2.4414L18.4492 2.17969C18.2773 1.8164 18.0586 1.58984 17.7031 1.41406L17.4062 1.26953L10.082 1.26172C5.74609 1.26172 2.69141 1.27344 2.60156 1.29297ZM6.67969 2.64062C6.75391 2.68359 6.85547 2.77734 6.90234 2.85156C6.99219 2.97656 6.99219 3 6.99219 4.16797C6.99219 5.48437 6.98438 5.54297 6.74219 5.71484C6.63281 5.79297 6.56641 5.80078 6.05469 5.8125C5.51562 5.82422 5.48047 5.82031 5.35547 5.73437C5.28125 5.68359 5.18359 5.58203 5.14062 5.50781C5.0625 5.3789 5.05859 5.29687 5.04688 4.3164C5.03906 3.73437 5.04688 3.1875 5.05859 3.09375C5.08984 2.89062 5.30078 2.63672 5.48438 2.57812C5.55078 2.55859 5.81641 2.54687 6.07422 2.55078C6.46875 2.55859 6.56641 2.57031 6.67969 2.64062ZM14.7617 3.14453C15.043 3.30859 15.0586 3.36328 15.0703 4.15234C15.0781 4.83203 15.0742 4.87109 14.9922 5.01562C14.8086 5.32812 14.9492 5.3125 12.0977 5.3125C9.58594 5.3125 9.55859 5.3125 9.41406 5.23047C9.14062 5.07812 9.10156 4.94531 9.10156 4.19922C9.10156 3.51562 9.12891 3.375 9.29688 3.22265C9.48438 3.05078 9.53906 3.04687 12.1484 3.05859C14.5508 3.0664 14.6328 3.07031 14.7617 3.14453ZM10.957 6.97265C11.0469 7.05859 11.0547 7.09375 11.0547 7.46094V7.85156H11.3477H11.6406V7.46094C11.6406 7.09375 11.6484 7.05859 11.7383 6.97265C11.8398 6.86719 11.9375 6.85156 12.082 6.91797C12.2266 6.98437 12.2656 7.11328 12.2656 7.5039V7.85547L12.5508 7.84375L12.832 7.83203L12.8438 7.43359C12.8555 7.05859 12.8594 7.03125 12.957 6.95312C13.0898 6.84765 13.2148 6.85547 13.3477 6.96875C13.4531 7.05859 13.457 7.08203 13.4688 7.45703C13.4844 7.8164 13.4922 7.85156 13.5586 7.85156C13.7656 7.85156 14.043 8.10937 14.0859 8.33984L14.1094 8.47656H14.4805C14.8359 8.47656 14.8555 8.48047 14.9648 8.58984C15.1055 8.73047 15.1094 8.875 14.9805 9.00391C14.8945 9.09375 14.8594 9.10156 14.4922 9.10156H14.1016V9.39453V9.6875H14.4922C14.8594 9.6875 14.8945 9.69531 14.9805 9.78516C15.043 9.84375 15.0781 9.92578 15.0781 10C15.0781 10.0742 15.043 10.1562 14.9805 10.2148C14.8945 10.3047 14.8594 10.3125 14.4922 10.3125H14.1016V10.6055V10.8984H14.4922C14.8594 10.8984 14.8945 10.9062 14.9805 10.9961C15.1094 11.125 15.1055 11.2695 14.9648 11.4102C14.8555 11.5195 14.8359 11.5234 14.4805 11.5234H14.1094L14.0859 11.6602C14.043 11.8906 13.7656 12.1484 13.5586 12.1484C13.4922 12.1484 13.4844 12.1836 13.4688 12.543C13.457 12.918 13.4531 12.9414 13.3477 13.0312C13.2148 13.1445 13.0898 13.1523 12.957 13.0469C12.8594 12.9687 12.8555 12.9414 12.8438 12.5664L12.832 12.168L12.5508 12.1562L12.2656 12.1445V12.5C12.2656 12.8711 12.2109 13.0547 12.0898 13.1016C11.9609 13.1484 11.832 13.1211 11.7383 13.0273C11.6484 12.9414 11.6406 12.9062 11.6406 12.5391V12.1484H11.3477H11.0547V12.5391C11.0547 12.9062 11.0469 12.9414 10.957 13.0273C10.8438 13.1445 10.668 13.1523 10.543 13.0508C10.457 12.9805 10.4492 12.9414 10.4375 12.5625C10.4219 12.1836 10.418 12.1484 10.3477 12.1484C10.2266 12.1484 9.98047 12.0078 9.90625 11.8945C9.86719 11.8359 9.82812 11.7305 9.81641 11.6562L9.79297 11.5234H9.44531C9.08203 11.5234 8.89844 11.4687 8.85156 11.3477C8.80469 11.2187 8.82812 11.0664 8.91797 10.9844C8.99219 10.9141 9.05859 10.8984 9.39453 10.8906L9.78516 10.8789L9.79688 10.5937L9.80859 10.3125H9.41406C9.04688 10.3125 9.01172 10.3047 8.92578 10.2148C8.79688 10.0898 8.79688 9.91016 8.92578 9.78516C9.01172 9.69531 9.04688 9.6875 9.41406 9.6875H9.80859L9.79688 9.40234L9.78516 9.12109L9.38281 9.10156C9.01562 9.08203 8.96875 9.07422 8.90234 8.98828C8.82031 8.88672 8.80859 8.72266 8.87891 8.62891C8.96875 8.51172 9.09766 8.47656 9.44531 8.47656H9.79297L9.81641 8.34375C9.82812 8.26953 9.86719 8.16406 9.90625 8.10547C9.98047 7.99219 10.2266 7.85156 10.3516 7.85156C10.4258 7.85156 10.4297 7.82812 10.4297 7.49609C10.4297 7.14453 10.4648 7.01562 10.582 6.92578C10.6836 6.84765 10.8555 6.86719 10.957 6.97265ZM6.28125 7.66406C6.71094 7.86719 6.91016 8.45312 6.69531 8.88281C6.52734 9.21094 6.23438 9.39062 5.85938 9.39062C5.03906 9.39062 4.625 8.46875 5.17188 7.86328C5.46094 7.54687 5.87891 7.47265 6.28125 7.66406ZM6.23047 10.6797C6.86328 10.9727 6.96094 11.8359 6.41406 12.2539C5.71484 12.7891 4.75391 12.1484 4.96094 11.2891C4.99609 11.1445 5.05859 11.0352 5.19141 10.8945C5.48047 10.5781 5.85547 10.5039 6.23047 10.6797ZM6.74219 14.2852C6.98438 14.457 6.99219 14.5156 6.99219 15.832C6.99219 17 6.99219 17.0234 6.90234 17.1484C6.75 17.3789 6.59766 17.4375 6.11719 17.457C5.62891 17.4727 5.44922 17.4336 5.25781 17.2656C5.05078 17.082 5.03125 16.9531 5.04688 15.7227C5.05859 14.7031 5.0625 14.6211 5.14062 14.4922C5.18359 14.418 5.28125 14.3164 5.35547 14.2656C5.48047 14.1797 5.51562 14.1758 6.05469 14.1875C6.56641 14.1992 6.63281 14.207 6.74219 14.2852ZM14.7656 14.7617C14.8398 14.8008 14.9414 14.9023 14.9922 14.9844C15.0742 15.1289 15.0781 15.168 15.0703 15.8477C15.0586 16.6367 15.043 16.6914 14.7617 16.8555C14.6328 16.9297 14.5586 16.9336 12.0898 16.9336C9.26562 16.9336 9.41016 16.9453 9.21094 16.6719C9.125 16.5508 9.12109 16.5039 9.10938 15.8516C9.09766 15.2852 9.10938 15.1406 9.15625 15.043C9.23047 14.9062 9.35938 14.7734 9.47266 14.7266C9.51562 14.707 10.6953 14.6914 12.0898 14.6914C14.4922 14.6875 14.6367 14.6914 14.7656 14.7617Z" fill="#FAFAFF"/>
<path d="M5.69141 3.19141C5.67578 3.20312 5.66406 3.66016 5.66406 4.20703V5.19531H6.01562H6.36719V4.17969V3.16406H6.04297C5.86328 3.16406 5.70312 3.17578 5.69141 3.19141Z" fill="#FAFAFF"/>
<path d="M9.72656 4.17969V4.6875H12.0898H14.4531V4.17969V3.67188H12.0898H9.72656V4.17969Z" fill="#FAFAFF"/>
<path d="M10.4297 10V11.5234H11.9531H13.4766V10V8.47656H11.9531H10.4297V10Z" fill="#FAFAFF"/>
<path d="M5.64477 8.07812C5.48461 8.17969 5.42992 8.25 5.40258 8.41015C5.35571 8.70703 5.60961 8.97265 5.90649 8.93359C6.32836 8.875 6.45336 8.33594 6.09789 8.09765C5.93774 7.98828 5.80102 7.98437 5.64477 8.07812Z" fill="#FAFAFF"/>
<path d="M5.61733 11.1211C5.4689 11.2149 5.37515 11.4219 5.4064 11.5977C5.42983 11.7539 5.60171 11.9375 5.76186 11.9766C6.0939 12.0586 6.4103 11.6797 6.27749 11.3594C6.24624 11.2891 6.18374 11.1992 6.14077 11.1563C6.02358 11.0547 5.75015 11.0352 5.61733 11.1211Z" fill="#FAFAFF"/>
<path d="M5.67188 15.8086L5.68359 16.8164L6.02734 16.8281L6.36719 16.8398V15.8203V14.8047H6.01562H5.66406L5.67188 15.8086Z" fill="#FAFAFF"/>
<path d="M9.72656 15.8203V16.3281H12.0898H14.4531V15.8203V15.3125H12.0898H9.72656V15.8203Z" fill="#FAFAFF"/>
</svg>
